<svg xmlns="http://www.w3.org/2000/svg" xmlns:xlink="http://www.w3.org/1999/xlink" viewBox="0 0 22.98 21.63"><defs><style>.cls-1{fill:url(#Degradado_sin_nombre_31);}</style><linearGradient id="Degradado_sin_nombre_31" x1="4.2" y1="3.51" x2="15.82" y2="23.64" gradientUnits="userSpaceOnUse"><stop offset="0" stop-color="#3e69b1"/><stop offset="0.49" stop-color="#33a3c9"/><stop offset="1" stop-color="#b9cb32"/></linearGradient></defs><g id="Capa_2" data-name="Capa 2"><g id="Capa_1-2" data-name="Capa 1"><path class="cls-1" d="M22.53,14.68a25.39,25.39,0,0,0-1.42-2.92,46.69,46.69,0,0,0-3.06-4.9c-.83-1.53-1.95-2.63-3.86-2.59A4.35,4.35,0,0,0,10.4,6.66c-1.29,2.2-2.54,4.43-3.81,6.64-.33.57-.72.58-1.2.15a1.27,1.27,0,0,1-.16-1.6A32,32,0,0,1,9.71,4.08a5,5,0,0,1,5.17-1.8,3.1,3.1,0,0,0,1.21.24C14.83,1.2,13.51.1,11.68,0c-2-.11-3.37,1-4.37,2.65C5.88,5,4.51,7.35,3.1,9.69a5.66,5.66,0,0,0-.62,1.48,4.1,4.1,0,0,0,3.87,5.35c.76,0,1.52,0,2.28,0,2,0,4,0,6,0,.65,0,.76.31.75.82a.92.92,0,0,1-.48.83,3,3,0,0,1-1.67.4l-7.4,0a13,13,0,0,1-1.39-.23C2.32,17.79,1,16.14.76,13.64c-1.51,2.85-1,6.62,3.3,7.33a1.28,1.28,0,0,0,.37.14,69.33,69.33,0,0,0,9.45.23,4,4,0,0,0,4.17-4.65,5.21,5.21,0,0,0-.81-2.17c-.9-1.56-1.78-3.13-2.67-4.69-.32-.59-.64-1.18-1-1.77-.11-.23-.43-.47-.24-.71a1,1,0,0,1,1-.31,1.85,1.85,0,0,1,.89.43,9.22,9.22,0,0,1,.9,1.16c1.17,2.16,2.29,4.35,3.43,6.53A4.67,4.67,0,0,1,18.43,21c-.18.17-.47.27-.47.62a2.06,2.06,0,0,0,.93-.11C22.29,20.79,23.82,17.91,22.53,14.68ZM13,13a1.61,1.61,0,0,1-2.11,1h0c-.94-.8-1.05-1.24-.52-2.33.26-.54.58-1,.86-1.59s.37-.54.63,0,.62,1.09.93,1.64C12.87,12.12,13.15,12.51,13,13Z"/></g></g></svg>